<svg width="606" height="578" viewBox="0 0 606 578" fill="none" xmlns="http://www.w3.org/2000/svg">
<g opacity="0.05">
<path fill-rule="evenodd" clip-rule="evenodd" d="M187.774 460.035C131.669 369.309 101.639 261.967 121.817 153.204C128.704 116.105 158.472 87.2906 195.745 81.417C229.097 76.1628 253.201 73.5309 300.44 77.4576C283.414 105.713 273.342 133.899 262.753 161.291C239.16 160.438 215.126 165.157 207.511 167.503C188.342 238.36 213.08 359.673 287.815 460.035H187.774Z" fill="white"/>
<path fill-rule="evenodd" clip-rule="evenodd" d="M279.232 239.191C303.712 135.367 358.386 38.2287 449.564 -24.4052C480.664 -45.7741 522.094 -45.0986 552.603 -22.8945C579.898 -3.0315 598.804 12.1496 629.43 48.3291C597.411 56.2715 570.36 69.0835 543.501 80.9619C527.424 63.6744 507.091 50.0179 500.044 46.293C436.386 82.8431 368.093 186.118 349.974 309.931L279.232 239.191Z" fill="white"/>
<path fill-rule="evenodd" clip-rule="evenodd" d="M500.036 147.78C590.764 91.6761 698.114 61.647 806.876 81.8243C843.976 88.7112 872.796 118.478 878.669 155.75C883.919 189.101 886.555 213.205 882.629 260.442C854.367 243.417 826.186 233.345 798.788 222.756C799.646 199.164 794.927 175.13 792.576 167.516C721.717 148.347 600.405 173.085 500.036 247.817V147.78Z" fill="white"/>
<path fill-rule="evenodd" clip-rule="evenodd" d="M279.199 680.848C175.372 656.369 78.2308 601.701 15.5953 510.52C-5.77428 479.421 -5.09871 437.997 17.1059 407.485C36.9695 380.195 52.1511 361.284 88.3315 330.659C96.2742 362.678 109.087 389.728 120.965 416.586C103.677 432.663 90.0205 452.995 86.2954 460.041C122.847 523.698 226.124 591.99 349.941 610.112L279.199 680.848Z" fill="white"/>
</g>
</svg>
